<?xml version="1.0" encoding="UTF-8"?>
<svg id="Calque_1" data-name="Calque 1" xmlns="http://www.w3.org/2000/svg" viewBox="0 0 139 37.97">
  <defs>
    <style>
      .cls-1 {
        fill: #8f87c0;
      }

      .cls-2 {
        fill: #feefe6;
      }
    </style>
  </defs>
  <path class="cls-1" d="m121.72,29.89c-.21.35-2.07,1.03-5.56,2.02-1.7,1.03-2.93,1.55-3.7,1.55v-.31c1.89-.93,4.97-2.08,9.26-3.42v.16h0Zm-8.49,7.45c.21.02.31.14.31.31l-.31.16c-.21,0-.31-.1-.31-.31l.31-.16ZM136.23,3.81c0,.1.06.16.16.16l-.16.78v.16c.44,0,.79.46,1.08,1.4.68.64,1.08,1.36,1.23,2.17.31,0,.46.1.46.31v.62c0,.27-1.6.8-4.79,1.55-3.38.91-5.84,2.31-7.41,4.19,1.51.8,3.45,1.38,5.86,1.71,3.18,1.57,4.78,3.78,4.78,6.67,0,4.91-2.99,8.48-8.95,10.71-2.22,1.03-3.92,1.55-5.09,1.55,0-.23.25-.39.77-.46v-.16h-.16c-.85.41-1.47.62-1.85.62l.16.31v.16c-1.62.72-2.7,1.09-3.24,1.09h-.15v-.31c1.75-.62,2.78-.93,3.08-.93v-.16h-.15c-.6,0-2.6.68-6.02,2.02h-.15c.5-.54,1.99-1.26,4.47-2.17v-.31c-.25,0-.71.25-1.39.78l-.93.16-.15-.31c.21-.1.37-.16.46-.16v-.16h-.16c-.66.21-1.06.31-1.23.31l.15-.31h-.15c-.21.02-.31.14-.31.31.1,0,.16.06.16.16-.44.1-.75.41-.93.93l-1.08.31h-.15v-.16h.31v-.16h-.62v-.31c0-.14.36-.41,1.08-.78l.31.16c.21-.1.36-.16.46-.16l-.16-.31c1.81-1.26,5.31-2.5,10.49-3.72l.46-.62h-.16c-2.03.93-3.72,1.4-5.09,1.4,0-.25.83-.56,2.47-.93l-.16-.31c.52-.31.87-.46,1.08-.46v-.16h-.31v-.31c2.33-.93,3.57-1.4,3.7-1.4v.31c-.52.08-.77.23-.77.46h.15c1.85-.58,3.34-1.67,4.47-3.26v-.31h-.15c-.27.72-.52,1.09-.77,1.09h-.15v-.31c.83-.95,1.23-1.92,1.23-2.95l-1.23,2.33c-1.79,2.02-4.57,3.47-8.33,4.35-1.16,0-3.93.93-8.34,2.79h-.62c0-.29,2.41-1.32,7.25-3.1.99,0,2.49-.46,4.47-1.4v-.16h-.16c-1.54.52-2.62.78-3.24.78v-.31c5.25-1.71,7.87-3.04,7.87-4.04.37-.76.68-1.34.93-1.71-.87-.52-2.91-1.14-6.17-1.86v-.31h.15c.1,0,.16.06.16.16.17-.1.42-.16.77-.16v-.16c-3.49-1.22-5.25-2.93-5.25-5.12h-.15v.62c.56,1.76,1.79,3.26,3.7,4.5h-.31c-2.78-1.18-4.17-3.3-4.17-6.36,0-3.71,3.86-7.18,11.58-10.4l4.94-.93h.02Zm-19.45,30.58v.16c0,.21-.1.31-.31.31h-.15v-.16c.04-.21.14-.31.31-.31h.16Zm.77,1.71v.16c0,.16-.21.31-.62.46v-.16c0-.16.15-.31.46-.46h.15Zm1.39-2.17l-1.85.62v-.16c0-.18.56-.44,1.7-.78l.15.31h0Zm.15-1.09l-.31.16h-.46v-.16c.18,0,.37-.1.62-.31l.15.31Zm-.77,4.5h.15v.31h-.15v-.31Zm1.08-4.97h.15v.31h-.15v-.31Zm2.16.62c-1.06.41-1.68.62-1.85.62v-.31c1.01-.41,1.56-.62,1.7-.62l.16.31Zm-1.23-17.7v.31h.16v-.31h-.16Zm0,.46v.31h.16v-.31h-.16Zm.62,18.94v.16h.31v-.16h-.31Zm.16-19.25c0,2.44,1.39,4.15,4.17,5.12h.46v-.16c-1.1-.41-1.81-.87-2.16-1.4h.15c.79.52,1.31.78,1.54.78,0-.21.16-.31.46-.31v-.16c-.4,0-.62-.16-.62-.46h.46c-1.58-1.18-2.41-2.17-2.47-2.95v-.16h-.15v.16c.29,1.03.71,1.8,1.23,2.33h-.31l-.31-.16h-.46c-.58-1.12-.95-1.69-1.08-1.71v.31c.1.2.15.35.15.46h-.31c-.21-.93-.31-1.61-.31-2.02h.31v.62h.15c0-1.65,1.23-3.45,3.7-5.43h.15v-.16h-.31c-1.41,1.1-2.53,2.23-3.4,3.42v-.31c2.1-2.81,4.11-4.58,6.02-5.28v-.16h-.15c-4.63,2.58-6.94,4.95-6.94,7.14v.46h0Zm1.08-1.71c-.1.41-.15.78-.15,1.09h-.31c0-.76.15-1.18.46-1.24v.16Zm.46-3.1v.31h.15v-.31h-.15Zm.31,4.19l-.16.62v.16h.16l.15-.62v-.16h-.15Zm.15,3.42v.31c-.21,0-.31-.1-.31-.31h.31Zm-.15,13.04h.31v.16h-.31v-.16Zm2.78-19.87c-1.33,1.22-2.01,1.96-2.01,2.17h.15l2.01-2.17h-.15Zm-1.85,22.66v.16h.31v-.16h-.31Zm.62-.62v.31c.17-.1.38-.16.62-.16v-.16h-.62Zm.31-17.7v.31h.15v-.31h-.15Zm1.23-2.48v.16h.31v-.16h-.31Zm0,21.27v.16h.31v-.16h-.31Zm2.01-27.48v-.16h-.15c-1.14.5-1.7.87-1.7,1.09.99-.62,1.6-.93,1.85-.93h0Zm-1.7,21.73c.42-.21.73-.31.93-.31v-.16h-.16c-.62.14-.93.29-.93.46h.15Zm.46,4.66c.93-.23,1.39-.48,1.39-.78h-.15c-.79.39-1.25.64-1.39.78h.15Zm.62-5.28v.16h.15c1.1-.39,2.03-1.01,2.78-1.86h-.16l-2.78,1.71h0Zm1.08-20.65v.16h.31v-.16h-.31Zm.46.62v.16h.16c.93-.33,1.39-.6,1.39-.78l-1.54.62Zm.31,20.49h.31v.16h-.31v-.16Zm.31,1.4h.16c2.37-1.26,3.55-2.29,3.55-3.1-1.62,1.8-2.86,2.8-3.7,2.95v.16h0Zm.62-22.98v-.31c-.21.02-.31.14-.31.31h.31Zm0-1.24v.16h.31v-.16h-.31Zm.77,22.04l-.46.31h-.15v-.16c0-.16.15-.31.46-.46l.15.31Zm-.62,3.72h.15l1.08-.31v-.46c-.58.41-.99.62-1.23.62v.16h0Zm.15,1.09h.15c.21-.1.37-.16.46-.16v-.16h-.15c-.19.1-.35.16-.46.16v.16Zm.62-8.38v.31c.21,0,.31-.1.31-.31h-.31Zm.15-1.09c.04.21.14.31.31.31v-.31h-.31Zm.62-.46c.31.37.46.8.46,1.24l.31-.16c-.35-.84-.6-1.24-.77-1.24v.16Zm.46,3.1v.31h.15v-.31h-.15Zm.93,4.19v-.46c-.13,0-.29.16-.46.46h.46Zm2.01-3.88l-.15.78v.16h.15l.15-.78v-.16h-.15Z"/>
  <path class="cls-2" d="m11.9,0c2.88,0,5.2,2.35,5.2,5.23v22.55h-5.2v-1.64c-1.11,1.4-2.6,2.1-4.49,2.1-1.07,0-2.05-.2-2.95-.6-.9-.4-1.68-.96-2.34-1.67-.67-.71-1.19-1.54-1.56-2.5-.37-.96-.56-1.99-.56-3.11,0-1.05.17-2.06.53-3.01.35-.95.85-1.78,1.5-2.49.65-.71,1.42-1.27,2.33-1.68.9-.41,1.9-.62,2.99-.62,1.83,0,3.35.64,4.55,1.93V0Zm-6.52,20.36c0,.48.09.93.26,1.34.17.41.4.77.7,1.08.29.31.65.55,1.06.72.41.17.85.26,1.33.26s.89-.09,1.3-.26c.41-.17.76-.41,1.06-.72.3-.31.54-.66.71-1.07.18-.4.27-.84.27-1.3s-.09-.9-.27-1.31c-.18-.41-.42-.77-.71-1.08-.29-.31-.65-.55-1.06-.72-.41-.17-.84-.26-1.3-.26s-.89.09-1.3.26c-.41.17-.76.41-1.06.72-.29.31-.54.66-.71,1.05-.18.39-.27.82-.27,1.28h0Z"/>
  <path class="cls-2" d="m18.85,7.35c0-.4.08-.78.23-1.14.15-.36.36-.67.63-.94.27-.27.58-.48.93-.63.35-.15.73-.23,1.13-.23s.78.08,1.13.23c.35.15.66.36.93.63.27.27.48.58.63.94.15.36.23.73.23,1.14s-.08.78-.23,1.14c-.15.36-.36.67-.63.94-.27.27-.58.48-.93.63-.35.15-.73.23-1.13.23s-.78-.08-1.13-.23c-.35-.15-.66-.36-.93-.63-.27-.27-.48-.58-.63-.94-.15-.36-.23-.73-.23-1.14Zm5.52,5.67v14.76h-5.18v-14.76h5.18Z"/>
  <path class="cls-2" d="m37.81,13.02h5.2v14.76h-5.2v-1.64c-1.11,1.4-2.6,2.1-4.49,2.1-1.07,0-2.05-.2-2.95-.59-.9-.39-1.68-.94-2.34-1.66-.67-.71-1.19-1.55-1.56-2.5-.37-.96-.56-2-.56-3.13,0-1.05.18-2.06.54-3.01.36-.95.87-1.78,1.52-2.49.65-.71,1.42-1.27,2.32-1.68s1.89-.62,2.97-.62c1.83,0,3.35.64,4.55,1.93v-1.47h0Zm-6.52,7.33c0,.48.09.93.26,1.34.17.41.4.77.7,1.08.29.31.65.55,1.06.72.41.17.85.26,1.33.26s.89-.09,1.3-.26c.41-.17.76-.41,1.06-.72.29-.31.54-.66.71-1.07.18-.4.27-.84.27-1.3s-.09-.9-.27-1.31c-.18-.41-.42-.77-.71-1.08-.3-.31-.65-.55-1.06-.72-.41-.17-.84-.26-1.3-.26s-.92.09-1.33.26c-.41.17-.76.41-1.06.72-.29.31-.53.66-.7,1.05-.17.39-.26.82-.26,1.28Z"/>
  <path class="cls-2" d="m50.28,5.21v22.57h-5.18V0c2.86,0,5.18,2.33,5.18,5.21Z"/>
  <path class="cls-2" d="m51.82,20.27c0-1.09.22-2.12.66-3.06.44-.95,1.05-1.77,1.83-2.47.78-.7,1.71-1.25,2.79-1.66,1.08-.4,2.25-.61,3.53-.61s2.43.2,3.5.59c1.08.39,2.01.94,2.8,1.64.79.7,1.4,1.53,1.84,2.5.44.97.66,2.04.66,3.21s-.23,2.24-.67,3.21c-.45.97-1.06,1.8-1.84,2.5-.78.7-1.72,1.24-2.82,1.63-1.1.38-2.28.57-3.56.57s-2.42-.19-3.49-.57-1.99-.93-2.76-1.64c-.77-.71-1.38-1.56-1.82-2.55-.44-.99-.66-2.08-.66-3.29h0Zm5.46.06c0,.5.09.96.27,1.37.18.41.42.77.71,1.08.29.31.65.55,1.06.72.41.17.84.26,1.3.26s.89-.09,1.3-.26c.41-.17.76-.41,1.06-.72.29-.31.54-.67.71-1.08.18-.41.27-.86.27-1.34s-.09-.9-.27-1.31c-.18-.41-.42-.77-.71-1.08-.29-.31-.65-.55-1.06-.72-.41-.17-.84-.26-1.3-.26s-.89.09-1.3.26c-.41.17-.76.41-1.06.72-.3.31-.54.66-.71,1.07-.18.4-.27.84-.27,1.3h0Z"/>
  <path class="cls-2" d="m87.4,13.02v15.7c0,.82-.05,1.56-.14,2.21-.1.65-.23,1.23-.4,1.73-.23.63-.59,1.22-1.07,1.77-.49.55-1.07,1.02-1.76,1.42-.69.4-1.46.72-2.33.95-.87.23-1.81.34-2.82.34-1.14,0-2.19-.14-3.15-.43-.95-.29-1.79-.69-2.5-1.19-.71-.51-1.3-1.1-1.76-1.78-.46-.68-.76-1.42-.92-2.23h5.84c.36.98,1.18,1.47,2.46,1.47,1.09,0,1.92-.31,2.5-.92.58-.61.87-1.47.87-2.56v-3.36c-.38.36-.75.67-1.1.91-.35.24-.71.44-1.07.59-.36.15-.75.26-1.14.33-.4.07-.84.1-1.32.1-1.05,0-2.01-.18-2.89-.55-.88-.36-1.63-.87-2.27-1.53-.64-.65-1.13-1.43-1.49-2.35-.35-.91-.53-1.92-.53-3.04s.19-2.18.57-3.15c.38-.97.9-1.81,1.56-2.53.66-.72,1.44-1.28,2.34-1.7.9-.41,1.89-.62,2.96-.62,1.73,0,3.19.65,4.38,1.96v-1.55h5.18,0Zm-11.61,7.31c0,.48.09.93.26,1.34.17.41.4.77.7,1.08.29.31.65.55,1.06.72.41.17.85.26,1.33.26s.89-.09,1.3-.26c.41-.17.76-.41,1.06-.72.29-.31.54-.67.71-1.08.18-.41.27-.85.27-1.31s-.09-.92-.27-1.32c-.18-.4-.42-.76-.73-1.07-.31-.31-.66-.55-1.07-.72-.41-.17-.83-.26-1.27-.26s-.89.09-1.29.27c-.4.18-.75.42-1.06.72-.31.3-.55.65-.73,1.05-.18.4-.27.84-.27,1.3h0Z"/>
  <path class="cls-2" d="m94.67,13.02v8.31c0,1.82.88,2.73,2.63,2.73s2.63-.91,2.63-2.73v-8.31h5.18v9.32c0,1.99-.65,3.49-1.96,4.49-1.31,1-3.26,1.5-5.85,1.5s-4.54-.5-5.85-1.5c-1.31-1-1.96-2.49-1.96-4.49v-9.32h5.18Z"/>
  <path class="cls-2" d="m111.86,21.28c0,2.24,1.05,3.36,3.15,3.36,1.13,0,1.98-.46,2.55-1.38h5.01c-1.01,3.38-3.54,5.06-7.58,5.06-1.24,0-2.38-.19-3.4-.56-1.03-.37-1.91-.91-2.65-1.6-.73-.69-1.3-1.51-1.7-2.47-.4-.96-.6-2.03-.6-3.22s.19-2.33.57-3.32c.38-.99.92-1.83,1.63-2.52.71-.69,1.56-1.22,2.56-1.6,1-.37,2.13-.56,3.39-.56s2.36.19,3.34.56c.99.37,1.83.92,2.52,1.62.69.71,1.21,1.58,1.57,2.6.36,1.03.54,2.18.54,3.47v.55h-10.9Zm6.06-3.02c-.17-.73-.52-1.32-1.06-1.76-.54-.44-1.18-.66-1.94-.66-.8,0-1.46.21-1.96.63-.5.42-.83,1.02-.96,1.78h5.92Z"/>
</svg>