<svg width="459" height="649" viewBox="0 0 459 649" fill="none" xmlns="http://www.w3.org/2000/svg">
<path d="M141.241 351.643C139.76 348.679 137.694 346.2 135.259 343.921C134.227 342.935 133.965 341.022 132.775 339.803C129.903 336.805 127.662 333.279 124.997 330.114C124.469 329.482 123.87 328.886 124.301 327.901C124.467 327.51 124.06 327.22 123.571 327.08C123.421 327.596 123.299 328.121 123.15 328.636C121.798 327.54 122.745 326.017 122.431 324.683C121.938 322.66 120.897 321.014 119.088 320.028C117.732 319.288 116.846 318.055 116.003 316.956C113.597 313.731 110.544 310.909 108.786 307.282C107.124 303.897 105.145 300.821 102.5 298.2C101.768 297.468 103.212 296.147 101.644 295.932C102.429 293.844 100.705 292.529 99.7189 291.41C97.9597 289.336 97.6636 286.575 95.8406 284.598C95.4267 284.156 94.7966 284.594 94.5307 283.725C93.5947 280.742 91.6532 278.246 89.918 275.672C88.8927 274.151 88.2634 272.35 87.0585 270.916C83.1794 266.344 81.888 260.34 78.3691 255.504C76.8334 253.388 75.1008 251.323 73.8095 248.933C73.1808 247.819 72.244 247.076 72.9928 245.693C73.0483 245.533 72.8198 245.244 72.7247 245.002C71.6511 242.33 70.4697 239.709 69.513 236.958C68.5727 234.331 67.3647 231.702 66.3895 229.003C64.6888 224.351 61.0745 220.737 59.2928 216.145C57.2521 210.837 54.3589 205.92 52.3716 200.63C50.0558 194.48 47.8211 188.268 46.2583 181.841C45.8842 180.337 45.1776 179.017 43.5933 178.676C42.7032 178.486 42.7931 177.711 42.7071 177.442C41.8023 174.111 40.0992 171.101 39.0148 167.857C38.2148 165.428 36.0365 164.045 34.7778 161.906C34.2535 161.007 33.5191 159.766 33.4469 159.114C32.9832 155.458 30.8988 152.255 30.5152 148.628C30.325 146.68 28.7595 144.822 30.0617 142.705C30.2805 142.333 29.791 141.506 29.6202 140.879C28.4913 136.903 26.878 133.117 25.3459 129.27C23.3205 124.176 22.5127 118.758 21.6332 113.375C21.1363 110.245 19.3571 107.626 18.6007 104.556C17.9546 101.942 17.4338 99.3121 17.1807 96.6853C17.0138 95.0144 15.9748 93.8771 15.4478 92.4696C14.1778 89.0717 13.9808 85.5085 13.4443 81.9768C13.0823 79.4915 13.1143 76.9039 12.9481 74.4566C12.7081 70.759 11.6036 66.9705 10.1841 63.4012C9.0675 60.5942 8.42481 57.7127 8.38226 54.6512C8.35268 51.9825 7.26756 49.515 6.54868 47.0252C5.84718 44.5713 5.66471 41.999 4.70366 39.6043C3.28415 36.035 3.6802 32.1401 2.76122 28.5056C2.08854 25.8825 3.76732 23.6275 3.43311 21.0622C2.98579 17.5317 3.46777 13.9055 2.6369 10.3613C2.28128 8.8041 2.14933 7.20505 1.96405 5.58748C1.86727 4.74743 2.12747 3.91177 0.883756 3.45023C-0.129226 3.09863 0.493437 1.82123 0.34339 0.962658L25.7184 0.659819C25.7127 2.56953 25.6444 4.48735 26.1208 6.38517C26.3589 7.33405 26.5623 8.21112 26.9348 9.11708C27.8007 11.2696 27.7629 13.6161 27.9579 15.8942C28.0442 16.8501 27.9614 17.7772 28.2621 18.7179C28.9333 20.7431 28.39 22.8246 28.5165 24.8698C28.6196 26.638 28.7586 28.3889 27.9869 30.182C27.6294 30.954 28.3985 32.2665 28.6911 33.1446C30.284 37.8495 29.9454 42.8695 31.2974 47.5803C31.4681 48.2071 32.7655 49.3743 31.0626 49.978C31 49.9862 31.0386 50.4775 31.1337 50.7196C32.501 54.1812 31.6322 58.0613 32.858 61.4141C33.7565 63.8169 33.2366 66.1754 33.9126 68.5308C34.6059 70.922 35.1464 73.4096 35.5443 75.8776C35.7851 77.3352 37.0685 78.1988 37.1771 79.5209C37.3933 82.2544 38.468 84.8377 38.7119 87.4912C38.907 89.7693 39.0845 92.0114 39.7719 94.1617C40.9657 97.9513 41.4793 101.893 42.834 105.649C43.7396 108.204 43.8202 111.069 44.6354 113.712C45.0732 115.118 45.819 116.154 47.1497 116.795C47.363 116.869 47.6807 117.159 47.6518 117.328C47.4643 119.503 49.259 120.873 49.8061 122.825C50.7365 126.254 51.185 129.696 51.5789 133.208C51.7213 134.691 52.5796 136.004 52.9004 137.49C53.592 140.747 54.6868 143.875 55.9693 146.978C57.7636 151.275 59.6657 155.519 61.0568 159.945C61.7268 162.06 62.4664 164.318 63.6251 165.885C64.7489 167.38 66.0153 168.895 67.2099 170.444C68.9843 172.733 69.2794 175.583 70.2023 178.174C70.8142 179.94 72.3319 181.333 72.361 183.314C72.4187 186.59 74.6443 189.214 75.2488 192.292C75.5 193.633 76.3092 192.421 76.8472 192.936C78.365 194.329 79.5155 195.834 79.9189 197.855C80.0537 198.5 80.1538 199.072 80.5933 199.613C81.6835 200.947 82.2708 202.525 82.7771 204.164C84.4783 209.504 86.6103 214.635 89.1189 219.628C89.9554 221.262 90.2626 223.131 91.4757 224.628C92.0115 225.321 91.4374 226.287 91.7996 227.309C92.9722 230.643 94.8629 233.629 96.054 236.91C96.3129 237.627 96.6843 238.622 97.2441 238.817C99.0036 239.427 98.9924 241.783 100.798 242.261C101.207 242.373 100.757 242.724 100.844 242.904C101.403 243.874 101.407 244.981 102.781 245.757C104.154 246.532 104.799 248.548 105.718 250.032C107.205 252.46 108.458 255.045 109.613 257.656C109.969 258.437 111.574 259.233 110.061 260.411C110.051 260.437 110.101 260.723 110.164 260.715C112.256 261.143 111.365 263.193 112.048 264.237C113.862 266.927 114.564 270.068 116.119 272.818C117.507 275.272 119.34 277.222 121.882 278.762C123.237 279.59 125.345 280.919 125.09 283.46C124.989 284.44 126.007 285.122 126.686 285.746C128.663 287.537 129.318 290.124 130.308 292.35C131.871 295.85 134.257 298.529 136.487 301.484C138.963 304.763 141.565 308.026 143.32 311.831C143.468 312.181 143.677 312.612 143.961 312.74C146.667 313.978 148.091 316.504 149.885 318.65C152.594 321.86 154.619 325.49 156.528 329.2C158.838 333.646 161.345 338.04 164.744 341.759C166.584 343.772 168.713 345.556 170.832 347.367C171.892 348.273 172.562 349.7 173.394 350.915C175.884 354.587 178.652 358.056 181.772 361.201C183.571 362.99 185.113 365.258 187.105 366.576C191.079 369.24 193.852 373.04 197.412 376.038C199.443 377.759 201.069 379.787 203.905 380.651C205.417 381.116 207.857 382.262 208.418 383.741C209.525 386.664 212.093 387.526 214.098 389.237C214.327 389.436 214.503 389.706 214.215 389.846C212.688 390.63 214.106 391.451 214.342 391.891C216.325 395.297 218.9 397.864 222.779 399.509C225.363 400.585 228.008 402.429 229.562 405.268C230.033 406.149 231.039 407.036 231.944 407.529C234.151 408.743 235.877 410.567 237.885 412.011C239.106 412.882 240.684 412.982 241.686 414.226C244.042 417.164 247.753 418.691 249.957 421.637C252.029 424.357 254.492 426.556 256.773 429.021C257.584 429.87 259.347 429.436 259.174 431.139C260.112 431.106 259.266 430.185 259.828 430.201C260.337 430.198 260.635 430.63 260.388 431.171C259.957 432.068 260.647 431.889 261.126 432.055C264.38 433.095 266.959 435.215 269.802 437.008C272.601 438.756 275.18 440.876 278.106 442.429C279.87 443.37 281.008 445.169 282.619 446.295C284.485 447.63 286.089 449.292 287.784 450.777C290.495 453.121 293.821 454.724 296.043 457.705C297.342 459.471 298.82 461.149 300.686 462.573C302.127 463.67 303.782 464.753 305.076 466.188C305.657 466.837 306.907 467.54 307.927 468.043C309.382 468.757 310.946 469.241 311.955 470.636C312.061 470.763 312.291 470.962 312.389 470.936C314.26 470.451 314.853 472.27 315.969 473.015C317.252 473.879 318.497 474.938 319.507 476.245C320.395 477.389 321.89 477.729 323.113 478.422C327.172 480.667 331.469 482.487 334.836 485.866C335.568 486.598 336.445 487.171 337.24 487.806C338.004 486.637 338.909 487.818 339.705 487.676C341.619 487.324 342.805 488.812 344.396 489.304C348.512 490.613 350.945 494.534 354.904 496.207C355.863 496.629 356.786 497.756 357.551 498.649C358.898 500.192 360.514 500.872 362.4 501.288C362.925 501.411 364.079 501.184 363.794 502.608C363.69 503.08 364.427 504.142 364.925 504.255C367.47 504.84 368.076 507.828 370.504 508.492C371.073 508.659 371.039 509.275 371.184 509.803C371.748 511.791 373.814 512.896 375.847 512.288C377.29 511.833 377.81 513.089 378.605 513.723C379.135 514.176 379.247 515.23 380.333 514.681C380.45 514.602 380.672 514.739 380.868 514.777C380.482 516.406 381.653 516.215 382.643 516.289C384.533 516.438 385.012 518.844 386.91 519.055C387.115 519.066 387.245 519.38 387.161 519.71C386.908 520.697 386.887 520.929 387.786 521.092C389.353 521.396 390.222 522.594 391.155 523.605C392.794 525.339 394.526 526.717 396.94 527.077C397.278 527.134 397.53 527.7 397.874 527.998C399.101 529.111 400.682 529.72 401.991 530.682C404.972 532.851 407.976 535.298 410.191 538.038C412.099 540.373 414.434 542.08 416.479 544.104C418.471 546.11 420.806 547.816 423.611 549.029C426.629 550.315 428.592 553.267 430.955 555.58C431.246 555.861 431.562 556.328 431.918 556.422C433.67 556.881 434.857 558.279 435.896 559.416C437.772 561.501 439.926 563.384 441.558 565.653C443.664 568.534 446.458 570.639 448.827 573.194C450.456 574.954 451.824 576.952 453.048 579.02C453.607 579.99 454.131 580.889 454.943 581.649C456.928 583.503 458.534 585.673 460.835 587.308C461.648 587.889 461.965 589.732 462.916 590.779C464.386 592.394 465.775 594.071 467.191 595.757C467.341 595.929 467.302 596.214 467.37 596.447C467.617 597.458 467.456 598.866 469.274 598.362C469.507 598.294 469.923 598.558 470.09 598.765C471.38 600.557 473.012 602.139 473.034 604.655C473.137 618.043 473.319 631.458 473.475 644.864C473.486 646.122 473.515 647.417 473.526 648.675C472.664 646.942 470.995 645.556 471.468 643.331C471.63 642.521 470.707 642.081 470.296 641.46C466.58 635.9 462.865 630.339 459.141 624.804C458.869 624.382 458.418 624.046 458.002 623.782C454.705 621.921 452.465 619.082 450.468 615.97C447.307 611.049 444.218 606.094 440.157 601.787C437.453 598.907 434.479 596.202 432.685 592.592C431.945 591.111 430.517 590.406 429.333 589.427C425.906 586.565 422.922 583.2 419.531 580.32C416.74 577.947 414.445 575.179 411.988 572.534C411.353 571.866 411.033 571.068 410.605 570.322C409.047 567.84 406.65 565.365 404.132 565.477C401.641 565.598 400.415 564.395 399.234 563.239C397.25 561.295 395.122 559.422 393.4 557.241C390.79 553.916 387.365 551.652 383.948 549.36C381.355 547.624 378.737 545.7 375.868 544.585C371.081 542.714 367.604 538.878 363.061 536.734C362.901 536.679 362.796 536.463 362.7 536.31C360.2 532.844 356.166 531.384 353.076 528.668C349.598 525.609 345.792 523.063 341.622 521.049C341.214 520.847 340.788 520.699 340.389 520.471C339.99 520.243 339.53 519.934 339.15 520.34C338.716 520.817 339.866 520.858 339.428 521.691C337.444 519.748 334.432 519.389 332.964 516.819C332.475 515.992 331.411 516.131 330.883 515.499C329.319 513.552 327.312 512.02 325.485 510.4C323.746 508.87 322.107 507.136 320.088 505.898C318.954 505.206 318.073 504.302 317.582 502.877C317.081 501.479 315.285 500.975 313.977 500.611C310.171 499.529 307.085 497.233 303.99 494.963C300.682 492.531 297.873 489.435 294.248 487.401C293.974 487.245 293.746 486.868 293.488 486.838C288.819 486.263 285.42 483.231 281.675 480.856C280.594 480.182 279.623 479.367 278.505 478.8C277.565 478.324 278.43 476.952 277.015 476.64C274.354 476.045 273.82 473.022 271.795 471.542C268.831 469.408 265.75 467.443 262.823 465.292C262.23 464.847 262.158 464.882 262.727 464.362C263.215 463.904 262.816 463.676 262.56 463.468C261.748 462.708 260.561 462.685 259.658 462.102C254.788 459.008 249.791 456.109 245.129 452.758C242.449 450.842 240.295 448.183 237.905 445.86C235.762 443.772 233.421 441.825 231.45 439.587C229.804 437.702 227.844 436.035 226.758 433.657C226.436 432.948 225.749 432.261 225.075 431.878C221.742 430.034 218.962 427.546 216.318 424.836C215.217 423.707 213.81 422.681 212.361 422.208C208.992 421.158 206.974 418.367 204.303 416.424C203.542 415.862 202.943 415.265 201.947 414.95C201.387 414.755 200.462 413.807 199.9 413.104C197.185 409.652 193.856 406.764 190.435 404.143C186.333 400.987 182.918 397.143 178.923 393.935C176.732 392.159 175.049 389.693 173.247 387.484C170.873 384.599 167.694 382.57 165.311 379.711C163.112 377.096 160.389 375.046 157.81 372.837C157.669 372.728 157.529 372.53 157.495 372.369C156.883 366.989 152.18 364.789 148.928 361.509C146.089 358.672 143.134 355.914 140.557 352.839C140.346 352.587 139.852 352.116 140.267 351.693C140.367 351.578 140.855 351.807 141.184 351.892C141.25 352.303 141.326 352.688 141.872 352.579C141.97 352.553 142.159 352.439 142.168 352.413C142.085 351.965 141.711 351.836 141.347 351.68L141.241 351.643Z" fill="#9E8AF6"/>
</svg>
