<svg width="42" height="729" viewBox="0 0 42 729" fill="none" xmlns="http://www.w3.org/2000/svg">
<path d="M39.6166 437.837C39.672 438.79 38.7943 440.103 40.6262 440.405C40.7449 440.421 40.8905 440.842 40.8644 441.04C40.5026 442.562 40.9201 444.127 40.7165 445.67C40.6696 446.026 40.8391 446.572 40.3606 446.69C39.7978 446.837 39.6007 446.348 39.4602 445.887C39.39 445.656 39.2579 445.437 39.1653 445.224C38.8159 445.278 38.6144 445.433 38.6346 445.737C38.8122 450.189 37.3572 454.505 37.3764 458.935C37.3737 460.787 37.309 462.65 37.3683 464.489C37.3811 465.155 37.3715 465.838 37.959 466.419C38.4383 466.905 38.575 467.547 38.3863 468.367C38.0573 469.793 38.919 471.195 38.8274 472.652L39.9931 470.833C40.2201 470.944 40.4642 471.076 40.4224 471.393C40.3665 471.969 40.1867 472.569 40.2547 473.122C40.7479 477.011 37.9065 479.937 37.2561 483.494C37.0965 484.398 37.0436 485.257 36.9683 486.133C36.8349 487.906 37.4466 489.678 36.7093 491.452C36.0773 493.039 37.5144 493.893 38.1304 495.021C38.5851 495.845 39.1268 499.52 38.467 500.097C38.064 500.406 37.5325 500.316 37.3218 499.624C36.9656 498.51 37.2133 497.395 37.5864 496.398C37.9266 495.497 37.4958 494.796 36.9471 494.683C36.3985 494.571 36.2889 495.402 36.2621 496.062C36.2227 497.124 35.5846 498.147 36.1215 499.264C36.2312 499.5 36.1738 499.935 35.9364 499.904C34.0836 499.76 34.8968 501.377 34.5378 502.114C34.0252 503.254 34.1112 504.433 35.44 505.192C35.7013 505.347 36.3582 505.554 36.1426 505.969C35.0762 508.102 36.2164 510.748 34.4087 512.704C33.4713 513.707 33.5656 515.128 33.4485 516.321C33.1534 519.321 33.2591 522.334 33.043 525.344C32.9134 526.937 32.3089 528.467 32.2188 530.066C32.1518 531.184 32.4408 532.349 32.5097 533.505C32.6189 535.271 32.2504 536.691 31.2951 538.135C30.5174 539.301 30.6356 540.846 30.8351 542.08C31.2856 544.615 30.3222 546.883 29.9523 549.229C29.2557 553.746 27.3588 557.903 25.7903 562.164C24.7486 565.026 24.6856 568.097 23.9777 571.022C23.9291 571.237 24.2487 571.561 24.6347 572.296C24.5725 570.175 25.5808 568.939 26.4637 567.587C26.0079 569.821 26.1725 572.54 24.9314 574.167C23.5454 575.977 23.827 577.503 23.8519 579.298C23.8888 581.154 22.4326 582.733 22.7136 584.723C22.7935 585.337 22.1957 585.902 23.2117 586.439C24.3017 587.025 24.5591 586.294 25.2032 585.836C23.9921 588.152 24.3649 590.817 22.782 593.205C21.2991 595.445 20.8972 598.491 19.5464 600.949C17.2105 605.23 16.4998 610.007 14.9 614.505C14.3195 616.159 14.6609 617.996 14.2902 619.738C13.6024 622.968 11.8605 625.798 10.8323 628.862C9.76082 632.102 8.33846 635.255 7.89627 638.759C7.49066 641.986 5.51144 644.784 4.53998 647.877C4.37581 648.358 3.23231 649.093 4.79251 649.319C4.83205 649.324 4.92766 649.819 4.80529 649.984C3.83585 651.688 3.88091 653.787 2.34565 655.356C1.27387 656.462 0.903155 658.205 0.168059 659.657C-0.489418 660.979 -1.05728 662.233 -2.1119 663.362C-4.62786 666.109 -5.45221 669.764 -6.9746 673.065C-5.58664 674.597 -6.71583 676.138 -6.95893 677.676C-7.16554 678.937 -7.71257 680.032 -8.27001 681.206C-9.24163 683.232 -9.87285 685.423 -10.6571 687.553C-10.7937 687.978 -10.9697 688.398 -11.163 688.795C-11.3011 689.078 -11.5406 689.369 -11.9378 689.175C-12.6186 688.844 -11.9267 688.634 -11.8901 688.357C-11.8051 687.865 -11.8783 687.352 -11.9046 686.483C-13.1025 687.935 -13.1493 689.358 -13.2805 690.81C-12.7318 690.922 -12.7259 690.42 -12.4968 690.209C-12.1848 689.827 -11.8698 689.728 -11.5159 690.097C-11.1672 690.505 -11.4345 690.852 -11.7994 691.025C-12.254 691.267 -12.7258 691.487 -13.2214 691.582C-13.6775 691.683 -13.9425 691.709 -13.7558 692.277C-12.6595 695.561 -14.7709 698.14 -15.723 700.933C-16.0185 701.8 -16.7425 702.711 -16.7782 703.591C-16.8787 705.269 -18.4238 705.387 -19.2904 706.158C-20.0898 706.878 -19.8019 705.306 -20.6014 704.959C-21.2826 707.224 -22.9799 708.952 -23.8074 711.258C-24.564 713.332 -24.8891 715.644 -26.337 717.465C-26.8214 718.086 -28.293 720.85 -28.4609 721.512C-29.0615 723.929 -31.0633 725.677 -31.7206 728.066C-39.7168 722.925 -47.6959 717.807 -55.6922 712.667C-55.4162 711.033 -54.7133 709.213 -53.8378 708.222C-51.351 705.39 -51.1992 701.647 -49.3006 698.697C-48.723 697.827 -47.7101 697.015 -46.8608 696.221C-45.9442 695.376 -45.3957 694.422 -45.148 693.308C-44.6698 691.056 -43.1891 689.138 -43.0394 686.783C-43.0305 686.563 -42.7924 686.131 -42.7133 686.142C-39.9766 686.603 -40.3771 683.995 -39.9831 682.839C-39.2832 680.738 -38.5834 678.636 -37.7476 676.573C-37.6804 676.521 -37.6013 676.532 -37.5169 676.503C-34.9143 674.471 -33.5217 671.696 -32.9578 668.49C-32.84 667.902 -32.9498 667.666 -32.0361 667.605C-30.7955 667.507 -29.5837 663.662 -30.2341 662.489C-30.2251 662.269 -30.311 662.157 -30.5193 662.21C-30.5125 662.312 -30.4663 662.418 -30.4595 662.52C-31.3858 662.981 -31.6305 664.378 -32.9913 664.319C-31.422 660.662 -28.706 657.619 -27.5958 653.781C-27.2414 652.62 -26.9833 651.426 -26.6856 650.238C-26.5662 649.79 -26.5947 649.243 -26.3155 648.958C-23.8152 646.329 -24.1008 642.85 -23.4011 639.682C-23.3318 639.309 -23.2385 639.059 -22.8324 639.032C-22.2457 639.009 -22.63 639.482 -22.5202 639.718C-22.0192 640.649 -22.1497 641.638 -22.717 642.429C-23.0618 642.907 -23.2289 643.106 -22.6444 643.405C-21.9859 643.753 -22.0644 643.28 -21.8435 642.826C-18.8965 637.116 -19.1915 630.657 -17.433 624.65C-16.8223 624.751 -16.8924 625.587 -16.3198 625.823C-15.6411 621.747 -14.9795 617.648 -14.2613 613.576C-14.0271 612.259 -14.4535 610.914 -13.9199 609.616C-13.8095 609.389 -13.8051 608.746 -14.3694 608.752C-15.4533 608.73 -14.8726 608.142 -14.7413 607.757C-12.7624 602.825 -11.2493 597.611 -8.56038 593.095C-7.0081 590.482 -7.19359 587.922 -6.49299 585.358C-6.18859 584.271 -5.79984 583.155 -5.30283 582.133C-3.81855 578.968 -4.07357 575.714 -4.72943 572.448C-4.77727 572.2 -4.70116 571.928 -4.59073 571.701C-3.73256 569.621 -3.56419 567.429 -3.71752 565.235C-3.97337 561.377 -2.54364 557.863 -1.70211 554.23C-1.55666 553.585 -1.57464 552.959 -1.49112 552.326C-1.36583 551.376 -2.00053 550.085 -0.379255 549.695C-0.232922 549.654 -0.144208 548.982 -0.136767 548.62C-0.0325362 546.762 0.25752 544.868 0.0967914 543.036C-0.362948 538.588 1.17642 534.242 0.694325 529.811C2.26477 528.891 2.26899 527.181 2.66514 525.704C3.59774 522.144 4.41683 518.528 5.2531 514.935C5.27398 514.777 5.82557 514.105 4.77083 514.167C3.91909 514.216 4.43327 513.217 4.53024 512.787C5.79333 507.942 6.99966 503.07 7.83277 498.128C8.24747 495.748 8.66742 493.327 7.71607 490.928C7.59435 490.63 7.5226 490.258 7.62109 489.969C8.18444 488.293 7.85132 486.699 7.44424 485.055C6.75485 482.348 7.32475 479.706 7.82077 477.014C8.48837 473.479 9.09923 469.917 8.29249 466.268C8.05495 465.17 7.77636 463.926 8.4525 462.767C8.85874 463.807 9.71431 464.645 9.61446 465.859C11.5245 464.501 11.5469 464.484 10.247 462.743C9.93792 462.339 9.83188 461.923 9.81018 461.477C9.52202 456.186 9.01364 450.886 8.05441 445.648C7.99467 445.338 7.96098 444.83 8.13491 444.733C10.0965 443.442 8.83616 441.706 8.77994 440.148C8.75824 439.703 8.69697 439.252 8.73721 438.794C8.80354 438.139 9.3581 437.749 9.87091 437.676C10.5077 437.579 10.7406 438.254 10.6952 438.751C10.6528 439.53 11.0962 439.83 11.6912 440.049C11.6651 440.247 11.3344 440.465 11.6696 440.67C11.7435 440.72 11.9518 440.667 12.0414 440.599C12.3153 440.353 12.0368 440.176 11.9442 439.962C11.7047 435.523 11.6339 431.025 9.45658 426.934C9.21465 426.48 9.30119 426.129 9.32428 425.649C9.75046 420.13 9.64666 414.662 8.30745 409.252C7.91754 407.631 7.58963 405.998 7.2393 404.382C7.04958 403.532 7.04955 403.532 8.01392 402.934C8.40652 402.704 8.25568 402.322 8.1459 402.086C6.91087 399.548 7.93993 397.088 8.48378 394.644C8.88213 392.845 9.10655 391.144 8.2695 389.403C8.09627 389.038 8.08649 388.654 8.33651 388.285C9.66269 386.165 9.10698 383.818 9.00363 381.55C8.87556 378.554 8.52725 375.55 8.44397 372.52C8.34486 368.542 8.62271 364.453 6.79255 360.629C5.74907 361.216 5.55814 362.358 5.27612 363.427C5.19177 363.457 5.11265 363.446 5.01113 363.453C4.25623 362.005 4.45306 360.36 4.56184 358.925C4.76743 355.994 4.1885 353.06 4.78303 350.079C5.10007 348.591 3.37996 347.137 3.24313 345.428L1.63164 341.472C0.672186 339.896 0.392753 338.048 -0.22932 336.356C-1.8162 332.061 -3.03807 327.592 -4.96235 323.414C-5.06016 323.24 -5.15276 323.027 -5.09232 322.874C-4.67151 321.413 -4.7262 319.997 -5.2564 318.625C-5.44833 318.097 -5.86568 317.599 -5.38802 316.877C-3.80684 318.012 -2.75782 319.519 -2.35445 321.343C-2.23645 321.821 -2.24167 321.861 -1.87364 321.97C-1.46605 322.084 -1.14952 322.126 -0.980156 321.605C-0.805568 321.044 -2.19628 315.567 -2.61952 315.572C-4.71189 315.718 -3.77901 314.292 -3.97025 313.301C-4.87192 308.693 -5.17119 303.944 -7.33957 299.633C-7.59344 299.116 -7.80254 298.566 -8.32512 298.255C-8.43708 298.341 -8.58337 298.382 -8.67294 298.451C-9.16557 298.829 -8.66152 300.042 -9.56627 299.883C-10.256 299.772 -10.1479 298.8 -10.1883 298.19C-10.3942 294.259 -11.0337 290.411 -11.8987 286.593C-12.2132 285.163 -12.8135 283.917 -13.8012 282.861C-13.8147 282.658 -13.6095 282.322 -13.9312 282.32C-14.2134 282.323 -14.176 282.65 -14.0438 282.869C-15.1202 283.552 -15.0964 282.609 -15.1644 282.057C-15.4156 279.689 -15.7459 277.311 -16.5822 275.107C-17.2969 273.202 -17.2942 271.35 -17.4617 269.416C-17.8662 264.855 -20.0368 260.865 -21.9767 256.805C-23.1259 254.379 -24.652 252.065 -25.0659 249.253C-25.2602 247.979 -26.1927 246.81 -26.8207 245.62C-27.1261 245.036 -27.6293 244.426 -26.9523 243.872C-26.3254 243.391 -25.7656 242.962 -26.1583 242.125C-26.7878 240.794 -27.4568 239.458 -28.2602 238.225C-28.4611 237.917 -29.0052 238.227 -28.8133 238.756C-28.6385 239.262 -28.2608 239.754 -29.1401 239.86C-29.8164 239.952 -30.4494 239.868 -30.51 238.954C-30.6036 237.07 -31.4011 235.335 -31.6805 233.487C-32.2872 229.542 -33.0798 225.634 -34.9861 222.082C-35.844 220.499 -33.7851 220.912 -33.7114 219.895C-33.6696 219.579 -32.8827 220.326 -32.7304 220.85C-32.3674 222.065 -31.5603 223.117 -31.3661 224.391C-31.2809 224.966 -30.774 225.395 -30.2559 225.282C-29.614 225.145 -29.9089 224.482 -30.065 224.14C-30.902 222.399 -30.506 219.855 -33.1598 219.223C-33.4316 219.147 -33.8041 218.615 -33.8072 218.333C-33.797 216.12 -34.9521 214.197 -35.8855 212.423C-36.6575 210.953 -37.3385 209.555 -37.8747 207.974C-38.6491 205.759 -39.4131 203.464 -40.1084 201.259C-40.7507 199.263 -40.9727 196.979 -41.6045 194.903C-41.8323 194.189 -42.184 193.499 -42.9246 192.858C-43.891 194.843 -42.1992 196.817 -43.2895 198.827C-44.4183 197.773 -44.4573 196.238 -44.7188 195.016C-45.3732 191.89 -46.3821 188.859 -47.1432 185.78C-47.569 183.973 -48.3649 182.379 -49.5931 181.009C-51.2729 179.097 -51.3054 176.597 -51.9902 174.313C-52.8566 171.421 -54.7059 168.963 -56.0836 166.286C-56.545 165.359 -57.2767 164.498 -58.6845 164.795C-59.5347 164.985 -59.5058 164.003 -59.7096 163.412C-61.3615 158.847 -61.9788 153.915 -65.1146 149.919C-66.2651 148.419 -66.9678 146.575 -68.0505 144.56C-66.7247 145.037 -65.8736 145.451 -65.5002 146.587C-65.4009 146.902 -64.8857 147.574 -64.6118 147.328C-64.2759 147.071 -63.6796 146.365 -64.1761 145.856C-66.545 143.37 -66.4261 139.723 -68.3733 137.091C-69.2319 135.971 -67.8704 135.567 -67.9571 134.852C-68.1118 133.583 -68.3232 132.288 -68.7481 131.084C-70.1155 127.261 -72.1681 123.75 -73.9848 120.129C-74.2215 119.635 -74.7486 118.901 -75.3614 119.122C-75.9295 119.309 -75.4367 119.998 -75.4202 120.483C-75.3529 121.498 -75.5505 122.539 -75.6802 124.132C-76.7331 121.739 -77.0036 119.67 -77.2898 117.721C-77.7941 114.373 -79.0748 111.266 -79.6411 107.931C-79.9003 106.387 -79.9618 104.87 -80.2038 103.348C-80.5446 101.049 -80.8629 98.7329 -83.0854 97.2724C-83.4377 97.0447 -83.4744 96.255 -83.582 95.6974C-83.6948 95.1793 -83.3821 94.335 -84.1219 94.2978C-85.0199 94.2397 -83.9463 95.4078 -85.2526 95.6984C-86.2135 84.5222 -89.7406 74.034 -94.3538 63.8452C-92.4726 64.5362 -92.3066 66.3292 -91.3621 67.5608C-91.2076 67.7623 -91.5352 68.2625 -90.9656 68.2169C-90.4356 68.166 -90.3834 67.7704 -90.4104 67.3643C-90.4679 66.7328 -90.3516 66.0035 -90.645 65.4817C-91.4395 64.0284 -91.8279 62.5482 -91.6482 60.8813C-91.5245 59.7907 -92.6807 59.8596 -93.1831 59.8537C-94.3857 59.8158 -94.3222 59.9449 -94.3702 58.6303C-94.5043 55.0704 -94.6609 51.5277 -95.4937 48.0768C-95.5639 47.8462 -95.6736 47.6103 -95.7834 47.3744C-96.6627 47.4798 -96.5917 48.3143 -97.0156 48.7817C-97.8578 48.1473 -97.5914 47.1963 -97.4975 46.4841C-97.1499 44.1551 -99.353 42.3952 -98.7353 40.0011C-98.595 39.3957 -98.5735 38.7746 -98.2182 38.2177C-90.0909 25.5839 -81.9808 12.9277 -73.7258 0.0893555C-72.8595 2.98108 -72.9308 5.8095 -72.6698 8.56098C-72.2527 12.7218 -72.4895 16.9573 -71.5871 21.1016C-71.4743 21.6197 -71.4698 22.0429 -71.8281 22.3177C-72.6118 22.9187 -71.981 23.324 -71.7547 23.8972C-71.4478 24.622 -70.5504 25.1429 -70.5392 25.6677C-70.486 26.9427 -69.4639 28.0436 -69.7392 29.2148C-70.1495 30.952 -69.6424 32.4478 -69.0786 33.9713C-68.5439 35.4104 -68.5616 36.9176 -67.2543 38.2976C-65.844 39.812 -65.8974 42.2 -66.3532 44.4343C-66.7344 46.2557 -66.0765 48.1338 -65.9157 49.9664C-65.7161 52.267 -66.8444 54.4125 -65.9722 56.8019C-64.18 61.8284 -62.787 66.9834 -61.2254 72.0801C-61.2672 72.3966 -61.3709 72.7251 -60.9685 72.8788C-60.8722 72.9116 -60.6863 72.8758 -60.6587 72.819C-60.4259 72.4271 -60.7663 72.2614 -60.9776 72.0323C-60.194 70.3645 -61.3289 68.7456 -61.1269 67.0615C-61.0396 66.2478 -61.1107 65.4133 -60.9391 64.5705C-59.3308 67.1777 -59.3543 70.2539 -58.2812 72.9515C-57.2081 75.6492 -58.0467 78.4971 -57.3917 81.1597C-56.588 84.5262 -55.5021 87.8897 -54.0632 91.0179C-53.2777 92.6914 -51.9637 94.173 -51.0871 95.9189C-50.3374 97.4065 -50.7716 99.0197 -50.1974 100.464C-49.8665 101.313 -49.9029 102.656 -48.2451 101.99C-47.7338 101.775 -47.5165 102.569 -47.3589 103.052C-46.857 104.588 -45.9521 105.814 -45.0233 107.164C-43.7854 108.918 -42.3167 111.668 -42.9091 113.26C-44.0389 116.331 -42.2993 118.553 -42.0175 121.146C-41.8224 123.024 -40.3599 124.142 -39.6154 125.67C-37.1573 130.683 -35.4807 135.976 -33.4943 141.21C-35.7531 141.093 -35.5949 141.114 -35.0042 143.043C-34.2148 145.603 -32.7006 147.855 -32.0575 150.456C-31.8864 151.143 -31.2862 151.323 -30.9152 151.714C-29.0493 149.927 -30.4454 148.153 -30.9092 146.482C-31.1505 145.564 -31.5104 144.631 -31.6897 143.702C-31.7203 143.476 -32.4407 143.14 -31.704 142.895C-31.2203 142.737 -30.7023 142.625 -30.4693 143.299C-29.9054 144.823 -28.8356 146.172 -28.4248 147.635C-27.9199 149.452 -26.9037 151.055 -26.5451 152.914C-26.3367 153.928 -25.8133 154.842 -26.9277 155.661C-27.1516 155.833 -27.2158 156.167 -27.0821 156.526C-26.1292 159.067 -25.4689 161.69 -25.2252 164.419C-24.9493 167.515 -23.1567 169.945 -21.464 172.523C-18.7156 176.71 -16.1121 181.079 -14.8961 186.049C-14.3351 188.357 -14.4385 190.819 -13.585 193.045C-12.4246 195.996 -11.4261 199.106 -8.55558 200.994C-7.53804 201.672 -7.41245 202.856 -6.82709 203.758C-5.13967 206.376 -3.49182 208.988 -2.43289 211.946C-2.19989 212.621 -1.87733 213.227 -2.46693 214.034C-3.95789 212.369 -4.52404 210.1 -6.32176 208.776C-6.30761 208.516 -6.40693 208.201 -6.66519 208.328C-6.96302 208.45 -6.63305 208.695 -6.55763 208.886C-6.27802 211.801 -5.01384 214.423 -3.89076 217.047C-2.37492 220.507 -0.814313 223.933 0.746314 227.359C0.873262 227.618 0.905417 227.984 0.69716 228.037C-1.51978 228.671 0.0681582 229.906 0.287011 230.841C1.19305 234.805 2.91345 238.393 5.12276 241.784C5.50728 242.378 5.87616 243.091 6.41591 243.424C8.80707 244.826 9.08364 247.459 9.48481 249.605C9.81425 251.379 9.96456 253.291 10.3284 255.11C11.0597 258.567 11.7858 262.065 12.5171 265.522C12.6059 265.916 12.8703 266.354 12.5516 266.634C10.4602 268.451 12.1952 270.25 12.5247 272.024C13.3711 276.745 15.5224 281.033 17.1675 285.497C18.4818 289.112 20.0716 292.623 21.2963 296.306C21.4711 296.812 21.8234 297.04 22.3034 297.063C22.823 297.091 23.0186 297.439 22.9664 297.835C22.7211 299.694 24.1553 301.333 23.807 303.058C23.2542 305.722 24.3899 307.945 25.1987 310.205C26.0948 312.718 27.1425 315.151 27.5377 317.8C28.134 321.823 29.8507 325.592 30.6328 329.579C31.3739 333.42 31.3767 337.366 32.3432 341.176C32.9504 343.591 32.4701 346.164 32.9034 348.677C33.0177 349.336 32.175 350.231 32.3782 351.284C33.3411 356.342 34.2197 361.429 35.0588 366.511C35.1544 367.007 35.2329 367.48 35.6352 367.634C37.6934 368.509 37.7146 370.484 38.0888 372.224C38.4683 373.925 38.7014 375.666 38.9174 377.385C39.0384 378.146 39.0699 378.975 38.1369 379.335C38.0525 379.364 37.9734 379.354 37.9115 379.366C36.49 378.394 36.9742 376.706 36.4858 375.374C36.2476 374.739 36.2005 374.028 36.0332 373.161C35.1584 373.689 35.0763 374.464 35.1772 374.92C35.5821 376.885 35.1748 378.904 35.6812 380.863C35.9224 381.78 35.8815 382.701 35.4703 383.834C34.7466 385.812 34.7484 388.086 35.6795 390.181C35.9745 390.844 36.4694 391.211 36.9875 391.099C37.7362 390.916 37.9093 390.214 37.3889 389.582C36.7998 388.86 37.6648 387.948 37.0138 387.238C36.8592 387.036 37.1899 386.818 37.443 386.731C37.8819 386.608 38.3066 386.744 38.4403 387.104C39.2408 389.122 39.174 391.306 39.4841 393.38C39.5999 394.18 38.7973 393.551 38.3778 393.375C38.3919 393.115 38.2926 392.8 38.0343 392.927C37.7365 393.049 38.0665 393.294 38.1419 393.485C37.5787 396.228 38.3076 398.941 38.5342 401.648C38.6322 402.888 37.6648 403.203 37.6806 404.151C37.6816 405.822 37.3385 407.508 37.4014 409.166C37.4726 411.067 36.651 412.871 37.1074 414.904C37.8065 417.995 37.9876 421.199 39.3287 424.153C39.8432 425.288 40.0531 426.442 40.1287 427.7C40.1789 428.693 40.4373 429.633 41.057 430.58C42.4166 432.631 41.6354 435.044 41.7387 437.311C41.747 437.554 40.8737 438.224 40.5924 438.831C39.9787 438.448 40.3824 437.676 39.7875 437.457C40.0584 436.929 40.121 436.454 39.5126 436.032C39.2932 436.627 39.1514 437.091 39.5568 437.527L39.6166 437.837ZM-26.3469 716.015C-26.7481 713.869 -26.9052 711.856 -25.6536 710.149C-24.4019 708.442 -24.0962 706.43 -23.462 704.521C-23.265 703.943 -23.4778 703.573 -23.8749 703.38C-24.1982 703.236 -24.3399 703.701 -24.4952 703.962C-26.1549 707.084 -26.7553 710.567 -28.0126 713.843C-28.3753 714.761 -28.3758 716.291 -26.3641 715.993L-26.3469 716.015ZM9.49121 625.908C12.9859 618.64 13.4013 615.797 11.4394 614.954C11.4116 618.674 9.74447 622.157 9.49121 625.908ZM-74.8944 117.413C-74.9415 116.702 -75.1745 116.027 -75.2664 115.351C-75.5519 112.938 -76.0405 110.539 -76.4723 108.168C-76.5388 107.756 -76.562 107.17 -77.2211 107.284C-77.9594 107.388 -77.5748 107.982 -77.5822 108.343C-77.5897 108.705 -77.4388 109.087 -77.4067 109.453C-77.1668 111.296 -76.3245 112.997 -76.8281 114.984C-77.0721 115.918 -76.6889 117.438 -74.8944 117.413ZM29.0535 533.311C30.0535 531.833 30.2004 530.262 29.7366 528.591C29.6544 528.298 30.5068 527.787 29.5401 527.639C28.7712 527.518 28.8527 528.273 28.8609 528.516C28.8111 529.656 28.868 530.751 28.2814 531.841C28.0709 532.215 28.2883 533.009 29.0363 533.289L29.0535 533.311ZM-48.0859 108.411C-47.2837 106.906 -48.5275 105.656 -48.4911 104.312C-48.4785 103.911 -48.6152 103.269 -49.2228 103.451C-50.1006 103.697 -49.4802 104.181 -49.3122 104.586C-49.0807 105.12 -49.097 105.701 -49.0738 106.288C-49.0319 107.038 -49.1572 107.988 -48.0687 108.433L-48.0859 108.411ZM-0.853281 326.593C-0.759997 326.343 -0.621955 326.06 -0.545849 325.788C-0.295155 324.955 -0.512491 324.162 -1.00527 323.473C-1.07395 323.384 -1.58678 323.457 -1.6644 323.587C-2.14204 324.309 -1.78513 324.96 -1.4506 325.628C-1.31171 325.948 -1.39151 326.401 -0.853281 326.593ZM-20.0939 252.908C-19.7297 252.13 -20.5703 251.637 -20.8481 250.997C-20.987 250.677 -21.355 250.568 -21.5707 250.982C-22.0468 251.845 -21.3577 252.419 -20.9337 253.018C-20.7104 253.309 -20.4111 253.329 -20.0715 252.89L-20.0939 252.908ZM36.6653 481.564C37.4288 480.659 37.3906 479.728 36.9844 478.688C35.6118 479.634 36.5652 480.645 36.6653 481.564ZM-14.949 264.253C-14.7924 263.066 -15.5054 262.369 -16.0049 261.578C-16.0049 261.578 -16.2804 261.683 -16.2856 261.722C-16.3593 262.739 -16.0061 263.57 -14.9266 264.236L-14.949 264.253ZM17.6371 296.125C17.1938 296.892 17.7179 297.344 18.0337 297.848C18.0337 297.848 18.3263 297.766 18.3144 297.704C18.3755 297.088 18.397 296.467 17.6147 296.143L17.6371 296.125ZM-95.9329 46.0666C-96.1322 45.8994 -96.3285 46.0144 -96.3099 46.1779C-96.2897 46.4824 -96.2075 46.7751 -96.0582 47.0161C-95.9208 47.1953 -95.7021 47.0631 -95.6364 46.8705C-95.4879 46.5077 -95.806 46.3249 -95.9501 46.0442L-95.9329 46.0666ZM38.9874 443.369C38.688 443.349 38.6843 443.53 38.6806 443.711C38.6784 444.032 38.4366 444.645 39.0495 444.424C39.5555 444.249 39.3241 443.715 39.0097 443.352L38.9874 443.369ZM-19.7166 254.93C-19.854 254.751 -19.957 254.616 -20.1272 254.533C-20.1616 254.489 -20.3131 254.569 -20.3975 254.598C-20.2944 254.733 -20.1914 254.867 -20.066 254.984C-20.0316 255.029 -19.8629 254.971 -19.739 254.947L-19.7166 254.93ZM-29.7027 661.513C-29.8371 661.616 -29.949 661.702 -30.0834 661.805C-30.0147 661.894 -29.946 661.984 -29.8773 662.073C-29.743 661.97 -29.631 661.885 -29.4967 661.782C-29.4967 661.782 -29.5997 661.647 -29.6856 661.535L-29.7027 661.513ZM-60.3882 74.8875C-60.3882 74.8875 -60.2508 75.0666 -60.1993 75.1338C-60.1321 75.0823 -60.065 75.0307 -60.0321 74.9345C-60.0321 74.9345 -60.0956 74.8053 -60.118 74.8225C-60.1971 74.812 -60.2815 74.8412 -60.3658 74.8703L-60.3882 74.8875ZM-92.3285 59.0205C-92.3285 59.0205 -92.4831 58.8189 -92.5346 58.7518C-92.6018 58.8033 -92.669 58.8548 -92.7018 58.9511C-92.7018 58.9511 -92.6383 59.0802 -92.6159 59.0631C-92.5368 59.0735 -92.4524 59.0444 -92.3509 59.0376L-92.3285 59.0205ZM17.4219 295.01C17.4219 295.01 17.4532 294.773 17.4465 294.671C17.4465 294.671 17.3106 294.633 17.3054 294.673C17.2382 294.724 17.2226 294.843 17.1502 294.934C17.2465 294.967 17.3032 294.995 17.3995 295.027L17.4219 295.01ZM-75.9116 118.868C-75.9116 118.868 -75.6914 118.877 -75.5899 118.871C-75.6018 118.809 -75.569 118.712 -75.6086 118.707C-75.6825 118.657 -75.8012 118.641 -75.8975 118.609C-75.9079 118.688 -75.9183 118.767 -75.9116 118.868ZM-74.8577 118.202C-74.8577 118.202 -74.7562 118.196 -74.6942 118.184C-74.7062 118.122 -74.6785 118.065 -74.7129 118.02C-74.7301 117.998 -74.8144 118.027 -74.854 118.022C-74.842 118.084 -74.8472 118.123 -74.8353 118.185L-74.8577 118.202ZM-93.1825 59.3908L-93.0966 59.5028L-93.0294 59.4513L-93.1653 59.4132L-93.1825 59.3908ZM-92.0268 59.7848L-91.9029 59.7609L-91.9888 59.6489L-92.0268 59.7848ZM-21.5656 249.876L-21.4537 249.79L-21.5276 249.74L-21.5656 249.876Z" fill="#9E8AF6"/>
</svg>
